<svg width="16" height="16" viewBox="0 0 16 16" fill="none" xmlns="http://www.w3.org/2000/svg"><g clip-path="url(#clip0)"><path d="M8 16.001c4.42 0 8-3.58 8-8s-3.58-8-8-8-8 3.58-8 8 3.58 8 8 8zM3.66 7.828l7.714-2.974c.358-.13.67.087.555.628l-1.313 6.187c-.097.439-.358.545-.723.339l-2-1.474-.964.929c-.107.107-.197.197-.404.197l.142-2.036 3.707-3.348c.161-.142-.036-.222-.249-.081l-4.58 2.884-1.975-.616c-.429-.136-.438-.429.09-.635z" fill="#fff"/></g><defs><clipPath id="clip0"><path fill="#fff" d="M0 .001h16v16H0z"/></clipPath></defs></svg>