<svg width="20" height="31" viewBox="0 0 20 31" fill="none" xmlns="http://www.w3.org/2000/svg"><path d="M9.819 16.727H6c-.181 0-.181 0-.272.182a4.431 4.431 0 00-.364 1c-.09.273-.182.637-.364.91a6.27 6.27 0 01-.363.908l-.273.819c0 .09-.09.09-.09.181-.092.091-.183.091-.274 0-.363-.181-.818-.273-1.181-.454-.546-.182-1.091-.455-1.637-.637-.09-.09-.273-.09-.363-.181-.182-.091-.182-.182-.182-.364.09-.182.09-.364.182-.546.09-.272.181-.454.272-.727.091-.182.182-.454.182-.636l.273-.818c.09-.273.273-.637.363-.91l.273-.818.273-.818c.09-.272.182-.636.364-.909.09-.364.272-.636.363-.909.182-.454.364-.818.455-1.182.182-.454.272-.818.454-1.273.091-.272.182-.545.364-.818l.273-.818L5 7.091c.091-.273.182-.546.273-.91.182-.454.364-.726.455-1.09.09-.364.272-.727.363-1.091.182-.364.273-.636.455-1 .09-.273.182-.545.363-.818.091-.364.273-.727.546-1.091a2.842 2.842 0 011-.818C8.728.182 9.09.09 9.364 0h1c.273 0 .636.182.91.273.363.182.635.454.908.818.091.182.273.364.364.545.273.455.363.91.545 1.273l.273.818c.09.364.273.728.454 1.091.182.364.273.727.455 1.182.182.364.273.727.455 1.09.181.365.272.728.454 1.183.091.363.273.727.455 1.09.181.364.272.728.454 1.183.182.363.273.727.455 1.181.09.364.273.727.363 1.091l.273.818c.091.273.182.546.273.91.09.272.182.545.364.818l.272.818c.182.454.273.818.455 1.273l.273.818c.09.181.181.454.272.636.091.182 0 .364-.182.364-.272.09-.454.181-.727.273l-.818.272-.818.273c-.273.09-.546.182-.818.363-.182.091-.364 0-.455-.181-.182-.455-.364-.91-.545-1.455-.091-.273-.182-.636-.364-.909-.182-.454-.273-.818-.455-1.273 0-.09-.09-.09-.181-.09h-.091c-1.273.181-2.546.181-3.818.181zm0-11.909c-.091.091-.091.182-.182.273-.091.182-.091.273-.182.454l-.273.819C9.092 6.545 9 6.818 9 7s-.09.364-.09.545c-.091.182-.091.364-.182.455a6.247 6.247 0 01-.273.727c-.091.273-.182.455-.273.728 0 .272-.09.454-.09.636-.092.182-.092.364-.183.455a6.15 6.15 0 01-.272.727c-.091.273-.182.636-.273.909-.09.272-.182.454-.273.727-.09.182 0 .182.182.182h5.181c.092 0 .183 0 .092-.182l-.273-.818c-.09-.273-.182-.545-.273-.91-.09-.272-.181-.635-.272-.908-.091-.273-.182-.637-.364-.91-.09-.272-.182-.636-.273-.908-.09-.273-.182-.637-.363-.91-.182-.363-.273-.818-.455-1.272-.09-.364-.273-.728-.364-1.091.091-.091 0-.273-.09-.364zm-.001 22h9.818c.091.091.182.182.182.364v3.455c0 .272-.09.272-.364.363h-19c-.09 0-.181 0-.272-.09A.196.196 0 010 30.726v-3.454c0-.182 0-.273.182-.364h.363c3-.09 6.091-.09 9.273-.09z" fill="#D43"/></svg>