<svg width="12" height="14" viewBox="0 0 12 14" fill="none" xmlns="http://www.w3.org/2000/svg"><path d="M8.07 2.552c.458-.59.785-1.375.687-2.161-.688.033-1.507.458-1.998 1.015-.426.491-.819 1.31-.72 2.063.786.098 1.539-.327 2.03-.917zm.687 1.114c-1.114-.066-2.063.622-2.587.622s-1.343-.59-2.227-.59a3.286 3.286 0 00-2.784 1.703C-.02 7.464.832 10.51 2.011 12.18c.556.818 1.244 1.735 2.128 1.703.852-.033 1.18-.557 2.194-.557 1.016 0 1.31.557 2.227.524.917-.033 1.507-.819 2.064-1.67.655-.95.917-1.867.917-1.9-.033-.032-1.802-.687-1.802-2.718-.032-1.702 1.376-2.521 1.441-2.554-.753-1.179-1.997-1.31-2.423-1.342z" fill="#fff"/></svg>