<svg width="25" height="32" viewBox="0 0 25 32" fill="none" xmlns="http://www.w3.org/2000/svg"><path d="M1.548 0h13.327v9.008c0 .597.485 1.08 1.083 1.08H25v20.37c0 .851-.693 1.542-1.548 1.542H1.548C.693 32 0 31.31 0 30.458V1.542C0 .691.693 0 1.548 0z" fill="#3472D1"/><path d="M25 10.088h-9.042L0 30.458C0 31.31.693 32 1.548 32h21.904c.855 0 1.548-.69 1.548-1.542v-20.37z" fill="#2E65BA"/><rect x="7" y="14" width="11" height="2" rx="1" fill="#fff"/><rect x="7" y="19" width="11" height="2" rx="1" fill="#fff"/><rect x="7" y="24" width="11" height="2" rx="1" fill="#fff"/><path d="M17.055 0c.41 0 .804.162 1.095.452l6.397 6.373c.29.29.453.681.453 1.09v.014h-7.958V0h.013z" fill="#3472D1"/></svg>