<svg width="18" height="21" viewBox="0 0 18 21" fill="none" xmlns="http://www.w3.org/2000/svg"><path fill-rule="evenodd" clip-rule="evenodd" d="M16.708 4.612l1.287 13.54a.195.195 0 01.005.052C18 19.746 16.487 21 14.624 21H3.376C1.513 21 0 19.746 0 18.204l.002-.026.003-.025 1.287-13.54c.028-.301.295-.529.617-.529h2.648C4.594 1.825 6.572 0 9 0c2.428 0 4.406 1.825 4.443 4.084h2.649c.317 0 .588.228.616.528zM12.2 4.084C12.164 2.465 10.743 1.16 9 1.16S5.836 2.465 5.8 4.084h6.4zM3.376 19.84h11.248c1.164 0 2.116-.721 2.134-1.61L15.521 5.248H2.474L1.242 18.23c.018.889.965 1.61 2.134 1.61z" fill="#fff"/></svg>