<svg width="30" height="23" viewBox="0 0 30 23" fill="none" xmlns="http://www.w3.org/2000/svg"><g clip-path="url(#clip0)"><path d="M0 20.212C0 21.752 1.203 23 2.687 23h24.626C28.797 23 30 21.752 30 20.212V7.775H0v12.437z" fill="#5997CC"/><path d="M2.687 23C1.203 23 0 21.752 0 20.212L30 7.775v12.437C30 21.752 28.797 23 27.313 23H2.687z" fill="#528BC2"/><path d="M0 2.82V5h30V2.82C30 1.262 28.795 0 27.311 0H2.687C1.203 0 0 1.262 0 2.82z" fill="#5997CC"/><path fill="#96CCD6" d="M18 11h9v2h-9zm0 3h9v2h-9zm0 3h9v2h-9z"/><path fill="#2F69A2" d="M0 5h30v3H0z"/></g><defs><clipPath id="clip0"><path fill="#fff" d="M0 0h30v23H0z"/></clipPath></defs></svg>