<svg width="29" height="29" viewBox="0 0 29 29" fill="none" xmlns="http://www.w3.org/2000/svg"><path d="M6.777 5.88l11.561-3.156-.612-1.237A1.63 1.63 0 0015.544.75L5.194 5.88h1.583z" fill="#519C41"/><path d="M21.927 2.816c-.143 0-.287.02-.43.058l-2.716.743-8.295 2.263h13.519l-.509-1.863a1.625 1.625 0 00-1.57-1.201z" fill="#55AF67"/><path d="M25.701 7.02H1.632a1.625 1.625 0 00-1.573 1.2A1.68 1.68 0 000 8.647V26.79c0 .899.73 1.628 1.628 1.628h24.07c.899 0 1.628-.73 1.628-1.628v-4.543h-9.662a2.77 2.77 0 01-2.768-2.768v-3.621c0-.75.3-1.43.784-1.928a2.74 2.74 0 011.98-.837h9.667V8.648a1.624 1.624 0 00-1.625-1.629z" fill="#A9754D"/><path d="M0 26.79V10.699l14.896 8.78a2.77 2.77 0 002.768 2.768h9.662v4.543c0 .899-.73 1.628-1.628 1.628H1.628A1.63 1.63 0 010 26.79z" fill="#A06D47"/><path d="M28.469 14.65a1.627 1.627 0 00-1.098-.427h-9.708a1.63 1.63 0 00-1.628 1.628v3.625c0 .899.73 1.628 1.628 1.628h9.708c.186 0 .362-.032.528-.088a1.57 1.57 0 00.57-.339c.325-.296.53-.726.53-1.201V15.85c0-.475-.204-.905-.53-1.202z" fill="#A06D47"/><circle cx="20" cy="17.7" r="1" fill="#E9C86F"/></svg>