<svg width="40" height="40" viewBox="0 0 40 40" fill="none" xmlns="http://www.w3.org/2000/svg"><g opacity=".8"><circle cx="20" cy="20" r="20" fill="#19222A"/><path d="M19.293 28.707l.001.001c.023.023.047.045.072.066l.036.026.043.032c.014.01.029.017.043.026l.04.024.046.022.043.02.045.016.048.017.045.012.05.012.053.008.043.006a.936.936 0 00.198 0l.043-.006.053-.008.05-.012.045-.012.048-.017.045-.016.043-.02.045-.022c.014-.007.027-.016.04-.024l.044-.026.043-.032.036-.027a.88.88 0 00.072-.065h.001l5-5a1 1 0 00-1.414-1.415L21 25.586V12a1 1 0 10-2 0v13.586l-3.293-3.293a1 1 0 10-1.414 1.414l5 5z" fill="#fff"/></g></svg>