<svg width="26" height="36" viewBox="0 0 26 36" fill="none" xmlns="http://www.w3.org/2000/svg"><path d="M23.983 14.132a1.911 1.911 0 100 3.823 1.911 1.911 0 000-3.823zm0 3.513a1.603 1.603 0 01-1.602-1.602 1.603 1.603 0 013.203 0 1.604 1.604 0 01-1.601 1.602zm.527-1.369a.938.938 0 00-.216-.168c.176-.025.307-.086.396-.184a.533.533 0 00.132-.371.571.571 0 00-.087-.314.456.456 0 00-.233-.192c-.096-.036-.252-.054-.465-.054h-.848v1.997h.403v-.834h.081c.093 0 .16.008.204.023a.307.307 0 01.12.083c.039.04.11.138.213.293l.292.435h.482l-.244-.39a2.233 2.233 0 00-.23-.324zm-.62-.438h-.298v-.507h.315c.163 0 .261.003.294.007.065.01.116.037.152.078a.238.238 0 01.053.163.26.26 0 01-.04.15.219.219 0 01-.114.084 1.562 1.562 0 01-.362.025z" fill="#010101"/><path d="M21.105 32.337a2.844 2.844 0 01-2.835 2.835H2.937A2.843 2.843 0 01.1 32.337V17a2.841 2.841 0 012.836-2.833H18.27A2.842 2.842 0 0121.105 17v15.336z" fill="#FBB725"/><path d="M6.198 20.318l.243-.058.044-.225.09.005c.17 1.394.293 2.294.295 3.125.01 4.03-.871 7.86-.913 12.008h3.937c.363-.996.631-2.229 1.095-3.125.384.908.674 2.053.894 3.125h4.107c-.203-2.847-.286-4.8-.795-8.355.308.01.475-.051.696-.128-.75-2.435-1.033-9.304-.262-12.9.153-.412.873-2.228.873-3.482 0 0 .123-.464.262-1v-.005c.024-.062.46-1.119.768-2.222.293-1.031.462-2.12.462-2.12l.28-.836s.213-.212.387-.47c.169-.243.298-.53.298-.53s.077-.11.247-.215c.114-.073.308-.127.308-.127l.857-.156s.28-.047.235-.197c-.043-.15-.445-.133-.445-.133s-.958.106-1.002.052c-.046-.055 1.072-.861 1.072-.861s.298-.247.195-.42c-.103-.172-.457.089-.457.089s-1.089.746-1.176.751c-.084.008.788-1.203.788-1.203s.264-.37.124-.526c-.14-.153-.399.176-.399.176s-.945 1.149-.99 1.2c-.05.055-.128-.012-.182-.079-.047-.059-.018-.17-.018-.17l.143-.991s.003-.238-.188-.303c-.2-.07-.283.186-.283.186l-.383 1.457s-.197.311-.458.405c-.2.071-.48-.072-.48-.072s-.19-.24-.4-.383c-.131-.087-.32-.103-.32-.103s-.342-.026-.485.155c-.063.082.176.19.176.19s.27.137.428.319a.609.609 0 01.116.312s-.033.116.127.374c.117.188.441.542.441.542s.098.156.14.318l-.01.395c-.02.072-.04.117-.04.117l-.717 1.878s-.284.563-.57 1.23c-.32.738-.654 1.601-.804 1.892l-.012.062-.016.025s-.226.33-.439.725c-.212.395-.815.79-.84.824-.023.038-.676.15-1.052.655s-.824.596-.824.596l-.108-.02s-.162-.603-.22-.79c-.059-.186-.05-.307-.05-.307s.357-.352.35-.496c-.01-.143-.059-1.37-.242-1.649-.182-.28-.27-.645-.305-.796-.036-.152-.186-.512-.308-.619-.125-.107-.423-.336-.46-.394-.036-.057-.174-.3-.352-.388-.174-.085-.136-.207-.252-.328a.433.433 0 00-.243-.137s.124.085.057.159l-.048.053-.016.019c-.029.027-.242-.022-.344.013-.1.036-.219.107-.219.107s-.14-.157-.393-.071c-.255.086.122-.014.122.079 0 .094-.07.1-.093.1-.022 0-.212.187-.337.18-.123-.008-.27.157-.3.18l-.254-.023-.101-.08-.01-.008.017.067c0 .049.072.072.007.17-.065.102-.132.137-.17.245-.034.107-.165.31-.211.274-.044-.036-.087-.03-.028-.124.058-.093.102-.1.102-.1s-.204-.036-.19.23c0 0-.306.066-.314.202 0 0 .095-.108.197-.018l-.094.039s-.044.173-.038.3c.008.13-.044.05-.071.06-.029.005-.198.464-.198.616 0 .094-.036.083-.062.049.013.056.015.132-.02.158-.064.05.102.073.088.244-.014.173-.197.317-.197.317l.145.029.024.063.042-.014s.098.307.104.422c.008.117.029.021.037-.006l.008-.03s.143.332.516.732c.374.403 1.119.86 1.177 1.12 0 0 .188 1.07.087 1.22l-.4-.006-.035.168s-.086.145-.159.21c-.07.064-.269.24-.269.24l-.248.178a2.424 2.424 0 01-.177.136c-.667.46-1.387.729-1.89 1.293-.76.855-.898 1.898-1.415 3.336.139.343.336.33.42.643l.012.003-.482 3.052c-.101.752-.5 1.68-.463 2.549-.115 1.369 0 3.623 0 3.623s.073 1.065.16 1.448c.085.383.629.944.629.944l1.044.323s.163.05.176-.094a.35.35 0 00-.074-.24s.012-.12-.038-.178c-.048-.06-.534-.265-.534-.265l-.148-.166-.187-.37c0-.036-.018-.464.052-.71 0 0 .3.049.333.149.016.046.248.383.472.43.222.048.177-.063.157-.156-.06-.2-.38-.6-.41-.764a2.015 2.015 0 00-.247-.66.989.989 0 00-.24-.207l-.092-.092s.573-1.966.847-2.944c.17-.81.275-1.668.283-1.987 0 0 .004-.248.116-.44.328-.578.807-2.288.807-2.288z" fill="#010101"/></svg>