<svg width="16" height="16" viewBox="0 0 16 16" fill="none" xmlns="http://www.w3.org/2000/svg"><path d="M13.654 2.346A7.941 7.941 0 008.108.006a1.203 1.203 0 00-.216 0 7.941 7.941 0 00-5.546 2.34A7.944 7.944 0 00.004 8c0 2.136.832 4.144 2.342 5.654a7.941 7.941 0 005.546 2.34 1.172 1.172 0 00.216 0 7.94 7.94 0 005.546-2.34A7.943 7.943 0 0015.996 8a7.943 7.943 0 00-2.342-5.654zm-10.636.672a7.007 7.007 0 013-1.781 7.634 7.634 0 00-.727.997 9.471 9.471 0 00-.757 1.528H2.371c.197-.26.413-.509.647-.744zM1.765 4.713h2.45c-.255.891-.406 1.84-.443 2.812h-2.8a6.99 6.99 0 01.793-2.812zm0 6.574a6.989 6.989 0 01-.794-2.812h2.8c.038.971.189 1.92.443 2.812H1.765zm1.253 1.695a7.133 7.133 0 01-.647-.744h2.164c.211.542.464 1.055.756 1.528.228.371.474.706.727.998a7.008 7.008 0 01-3-1.782zm4.507 1.872c-.396-.26-.928-.78-1.425-1.586a8.342 8.342 0 01-.538-1.03h1.963v2.616zm0-3.567H5.206a10.878 10.878 0 01-.483-2.812h2.802v2.812zm0-3.762H4.723c.04-.98.205-1.931.483-2.812h2.319v2.812zm0-3.763H5.562c.159-.361.338-.706.538-1.03.497-.806 1.029-1.327 1.425-1.586v2.616zm6.71.95a6.99 6.99 0 01.794 2.813h-2.8a11.925 11.925 0 00-.443-2.812h2.449zm-1.253-1.694c.235.235.45.484.647.744h-2.163a9.475 9.475 0 00-.756-1.528 7.634 7.634 0 00-.728-.997 7.008 7.008 0 013 1.781zM8.475 1.146c.396.26.928.78 1.426 1.587.199.323.378.668.537 1.03H8.475V1.145zm0 3.567h2.319c.278.88.443 1.833.483 2.812H8.475V4.713zm2.802 3.762c-.04.98-.205 1.931-.483 2.812H8.475V8.475h2.802zm-2.802 6.379v-2.616h1.963a8.34 8.34 0 01-.538 1.03c-.497.806-1.029 1.327-1.425 1.586zm4.507-1.872a7.008 7.008 0 01-3 1.782c.253-.292.499-.627.728-.998.291-.473.544-.986.756-1.528h2.163a7.14 7.14 0 01-.647.744zm1.253-1.695h-2.45c.255-.891.406-1.84.443-2.812h2.801a6.99 6.99 0 01-.794 2.812z" fill="#394049"/></svg>