<svg width="32" height="32" viewBox="0 0 32 32" fill="none" xmlns="http://www.w3.org/2000/svg"><path d="M16 32c8.832 0 16-7.168 16-16S24.832 0 16 0 0 7.168 0 16s7.168 16 16 16zm.126-24.001c2.019 0 3.877.71 5.356 2.084l-2.168 2.104c-.852-.834-2.018-1.232-3.188-1.232-2.768 0-4.981 2.29-4.981 5.038s2.207 5.039 4.981 5.039c2.103 0 4.187-1.232 4.523-3.439h-4.523v-2.748h7.543c.084.439.122.878.122 1.335 0 4.568-3.69 7.819-8.29 7.819l.625.001a7.988 7.988 0 01-8.001-8.001c0-4.42 3.563-8 8.001-8z" fill="#CC5445"/></svg>