<svg width="16" height="16" viewBox="0 0 16 16" fill="none" xmlns="http://www.w3.org/2000/svg"><path fill-rule="evenodd" clip-rule="evenodd" d="M0 8a8 8 0 1116 0A8 8 0 010 8zm6.014-4.788c-.513.023-.863.105-1.17.224a2.359 2.359 0 00-.853.555 2.365 2.365 0 00-.556.853c-.12.307-.2.657-.224 1.17-.022.513-.028.678-.028 1.986 0 1.308.005 1.472.029 1.986.023.513.104.863.223 1.17.124.316.288.585.556.852.268.268.536.433.853.556.307.12.657.2 1.17.224.513.024.677.03 1.986.03 1.308 0 1.472-.006 1.985-.03.513-.023.864-.104 1.17-.224.317-.123.585-.288.853-.556.268-.267.433-.536.556-.853.118-.306.2-.656.224-1.169.023-.514.029-.678.029-1.986 0-1.308-.006-1.472-.03-1.986-.023-.513-.105-.863-.223-1.17a2.363 2.363 0 00-.556-.853 2.354 2.354 0 00-.853-.555c-.307-.12-.657-.2-1.17-.224-.514-.023-.678-.03-1.986-.03-1.307 0-1.471.007-1.985.03zm3.98 2.217a.578.578 0 101.156 0 .578.578 0 00-1.156 0zM8 5.526a2.474 2.474 0 100 4.948 2.474 2.474 0 000-4.948zm0 3.757a1.283 1.283 0 100-2.566 1.283 1.283 0 000 2.566z" fill="#fff"/></svg>