<svg width="24" height="24" viewBox="0 0 24 24" fill="none" xmlns="http://www.w3.org/2000/svg"><path fill-rule="evenodd" clip-rule="evenodd" d="M0 12C0 5.373 5.373 0 12 0s12 5.373 12 12-5.373 12-12 12S0 18.627 0 12zm9.02-7.182c-.768.035-1.294.157-1.753.336a3.538 3.538 0 00-1.28.833 3.547 3.547 0 00-.834 1.28c-.18.46-.301.985-.336 1.754-.034.77-.043 1.017-.043 2.98 0 1.962.008 2.207.043 2.978.036.77.158 1.294.336 1.754.185.475.432.878.833 1.28.402.402.805.65 1.28.834.46.178.985.3 1.754.335.77.036 1.017.044 2.98.044 1.962 0 2.207-.008 2.978-.044.77-.035 1.295-.157 1.755-.335a3.536 3.536 0 001.279-.834c.402-.402.649-.805.834-1.28.178-.46.3-.985.336-1.754.034-.77.043-1.016.043-2.979 0-1.962-.009-2.209-.043-2.98-.036-.769-.158-1.294-.336-1.753a3.547 3.547 0 00-.834-1.28 3.531 3.531 0 00-1.28-.833c-.46-.179-.986-.3-1.755-.336-.77-.035-1.016-.044-2.979-.044-1.96 0-2.206.009-2.977.044zm5.97 3.325a.867.867 0 101.735 0 .867.867 0 00-1.734 0zM12 8.289a3.711 3.711 0 10.002 7.422A3.711 3.711 0 0012 8.29zm0 5.635a1.924 1.924 0 100-3.848 1.924 1.924 0 000 3.848z" fill="#394049"/></svg>