<svg width="45" height="40" viewBox="0 0 45 40" fill="none" xmlns="http://www.w3.org/2000/svg"><rect x=".5" y=".5" width="44" height="39" rx="3.5" stroke="#E8E9EA"/><path d="M31.953 27.718H17.91a1.054 1.054 0 01-1.048-1.06c0-.586.47-1.061 1.048-1.061h14.042c.579 0 1.048.475 1.048 1.06 0 .586-.469 1.061-1.047 1.061zm0-6.658H17.91A1.054 1.054 0 0116.862 20c0-.586.47-1.06 1.048-1.06h14.042c.579 0 1.048.474 1.048 1.06 0 .586-.469 1.06-1.047 1.06zm0-6.656H17.91a1.054 1.054 0 01-1.048-1.06c0-.586.47-1.061 1.048-1.061h14.042c.579 0 1.048.475 1.048 1.06 0 .586-.469 1.061-1.047 1.061zm-18.546.445c.777 0 1.408-.638 1.408-1.425 0-.786-.63-1.424-1.408-1.424-.777 0-1.407.638-1.407 1.424 0 .787.63 1.425 1.407 1.425zm0 6.575c.777 0 1.408-.637 1.408-1.424 0-.787-.63-1.424-1.408-1.424-.777 0-1.407.637-1.407 1.424 0 .787.63 1.424 1.407 1.424zm0 6.576c.777 0 1.408-.638 1.408-1.424 0-.787-.63-1.425-1.408-1.425-.777 0-1.407.638-1.407 1.425 0 .786.63 1.424 1.407 1.424z" opacity=".6" fill="#19222A"/></svg>