<svg width="130" height="24" viewBox="0 0 130 24" fill="none" xmlns="http://www.w3.org/2000/svg"><g clip-path="url(#clip0)"><path d="M127.857 2.705a2.152 2.152 0 10-.02 4.303 2.152 2.152 0 00.02-4.303zm0 3.978a1.868 1.868 0 01-1.73-1.156 1.868 1.868 0 011.364-2.552 1.873 1.873 0 11.366 3.708z" fill="#fff"/><path d="M128.559 5.185a.36.36 0 00-.253-.28.513.513 0 00.327-.478.58.58 0 00-.58-.58h-.711c-.113 0-.159 0-.159.159v1.778c0 .057 0 .066.065.066h.169a.065.065 0 00.065-.066v-.786h.375a.337.337 0 01.383.262l.15.553.169-.628zm-.113.628h.215v-.057l-.215.057zm-.496-1.077h-.449V4.1h.487c.299 0 .355.196.355.318a.367.367 0 01-.393.318zM96.351 2.902a8.77 8.77 0 00-8.78 8.33V23.4h2.808v-5.28a8.77 8.77 0 105.972-15.218zm5.972 8.78a5.97 5.97 0 01-11.829 1.165 5.97 5.97 0 0110.08-5.386 5.99 5.99 0 011.758 4.22h-.009zM61.878 7.628l-7.188 4.38 1.582 2.416 9.36-5.832V8.5a8.751 8.751 0 00-16.848 2.059 8.781 8.781 0 007.59 9.828 8.26 8.26 0 001.077.065 9.276 9.276 0 007.872-4.54l.056-.111-2.293-1.63-.075.132a6.355 6.355 0 01-6.253 3.323 5.972 5.972 0 01-2.93-10.643 5.729 5.729 0 014.41-1.216 5.94 5.94 0 013.64 1.862zm14.808-4.726a8.752 8.752 0 00-8.77 8.33V23.4h2.808v-5.28a8.77 8.77 0 105.962-15.218zm6 8.78A5.971 5.971 0 1176.75 5.71a5.981 5.981 0 015.934 5.971zM46.566 0h-2.808v5.279a8.76 8.76 0 102.808 6.87V0zm-2.808 11.681a5.972 5.972 0 11-6-5.934 5.972 5.972 0 015.962 5.972l.038-.038zm81.028-.449a8.783 8.783 0 00-7.291-8.241 8.789 8.789 0 104.484 15.111v2.303h2.807v-9.173zm-2.807.43a5.969 5.969 0 01-10.188 4.22 5.975 5.975 0 01-1.308-6.497 5.973 5.973 0 017.793-3.259 5.966 5.966 0 013.703 5.536z" fill="#fff"/><path d="M0 19.113V23.4h7.844a11.692 11.692 0 0011.7-11.681v-.43a11.166 11.166 0 00-.824-3.8L0 19.112zM15.444 2.92A12.168 12.168 0 007.488 0H0v12.495L15.444 2.92z" fill="#489ED8"/></g><defs><clipPath id="clip0"><path fill="#fff" d="M0 0h130v23.409H0z"/></clipPath></defs></svg>