<svg width="87" height="31" viewBox="0 0 87 31" fill="none" xmlns="http://www.w3.org/2000/svg"><path d="M.073 25.273v5.631a.037.037 0 00.037.037h10.312a15.428 15.428 0 0011.106-4.72 15.47 15.47 0 004.328-11.275 14.922 14.922 0 00-1.063-5.027L.073 25.273zM20.46 3.877A16.069 16.069 0 0010.018.01H.111a.037.037 0 00-.037.037v16.492L20.461 3.877zm13.94-.179l-.427-1.74c-.03-.068-.02-.165.097-.165h.444a.134.134 0 01.155.117l.456 1.72c.233.866.728 1.021 1.22 1.021h1.195V1.94c-.01-.111.019-.127.126-.127h.475c.111 0 .137.02.137.127v2.71h1.203c.486 0 .98-.155 1.214-1.021l.456-1.72a.135.135 0 01.155-.117h.456c.117 0 .127.097.098.165l-.437 1.74c-.146.583-.389 1.03-.855 1.234v.04c.66.204.865.631 1.02 1.234l.611 2.255c.03.068.02.156-.11.156h-.495a.134.134 0 01-.156-.117l-.602-2.188c-.213-.786-.612-.98-1.262-.98h-1.29V8.49c0 .111-.03.127-.136.127h-.466c-.111 0-.146-.02-.146-.127l.01-3.159h-1.298c-.65 0-1.048.195-1.263.981L34.384 8.5a.136.136 0 01-.155.117h-.485c-.146 0-.146-.088-.117-.156l.611-2.255c.156-.603.36-1.03 1.02-1.235v-.039c-.467-.203-.709-.65-.857-1.234zm12.681.534l-2.466 4.025c-.155.262-.233.36-.476.36h-.222c-.32 0-.417-.156-.417-.428v-6.26c0-.111.048-.127.135-.127h.476c.111 0 .136.02.136.127v5.657h.03l.767-1.283 2.543-4.15c.154-.263.213-.35.475-.35h.233c.32 0 .408.146.408.427v6.26c0 .111-.03.127-.136.127h-.476c-.111 0-.136-.02-.136-.127V2.813h-.038l-.836 1.42zm3.474-1.487c-.11.05-.165.03-.194-.057l-.136-.334c-.068-.126-.04-.155.039-.204.621-.36 1.359-.467 2.02-.467 1.33 0 2.26.575 2.26 1.692 0 .73-.474 1.313-1.212 1.575V5c.888.155 1.456.836 1.456 1.653 0 1.196-.922 2.07-2.67 2.07-.602 0-1.505-.068-2.174-.457-.078-.067-.111-.097-.039-.214l.155-.32c.04-.069.087-.111.204-.059a4.51 4.51 0 001.747.379c1.407 0 1.99-.583 1.99-1.444 0-.73-.621-1.264-1.718-1.264h-.534c-.204 0-.3-.088-.3-.253v-.185a.238.238 0 01.272-.272h.523c.894 0 1.534-.466 1.534-1.205 0-.787-.728-1.06-1.534-1.06a4.092 4.092 0 00-1.689.376zm6.28 5.872h-.495c-.087 0-.135-.02-.135-.127V1.934c0-.11.048-.126.135-.126h.495c.111 0 .137.02.137.126v2.751h3.63V1.94c0-.111.03-.127.136-.127h.476c.111 0 .135.02.135.127v6.555c0 .111-.028.127-.135.127h-.476c-.111 0-.137-.02-.137-.127V5.35h-3.63v3.14c0 .107-.03.127-.136.127zm6.212-.448v-6.24c0-.111.05-.127.137-.127h.485c.11 0 .136.02.136.127v2.508h1.834c2.088 0 2.3 1.41 2.3 2.1 0 1.204-.921 2.08-2.183 2.08h-2.252c-.32 0-.457-.127-.457-.448zm2.621-3.081h-1.86v2.839h1.854c1.231 0 1.503-.905 1.503-1.46-.002-.767-.506-1.38-1.497-1.38zM38.937 16.564c0 1.196-.922 2-2.165 2H34.49c-.32 0-.456-.126-.456-.444v-5.91c0-.301.111-.457.456-.457l2.175-.01c1.127 0 1.98.496 1.98 1.667a1.468 1.468 0 01-.888 1.38v.059c.888.262 1.18 1.025 1.18 1.715zm-2.292-2c.466 0 1.214-.213 1.214-1.11 0-.594-.417-1.022-1.116-1.022h-1.952v2.129l1.854.003zm.02.623h-1.874v2.692h1.887c1.22 0 1.484-.826 1.484-1.38-.002-.78-.526-1.315-1.497-1.315v.003zm6.64 4.828c0 .111-.05.136-.117.136h-.38c-.067 0-.11-.049-.11-.136l-.111-1.73c-.03-.234.049-.36.35-.389l.261-.02c.38-.437.564-.942.666-1.758l.466-3.667c.049-.418.145-.7.602-.7h2.99c.389 0 .534.184.534.544v5.6l.32.018c.301.03.332.146.32.334l-.11 1.77c-.01.086-.05.135-.117.135h-.399c-.057 0-.086-.039-.086-.127l-.049-1.457h-4.946l-.084 1.447zm.737-2.126h3.675v-5.456h-2.663l-.444 3.607c-.131 1.03-.305 1.448-.568 1.849zm10.57.678h-2.698c-1.213 0-1.583-.72-1.583-1.604v-3.596c0-.895.444-1.614 1.583-1.614h2.63c.127 0 .156.058.156.175v.341c0 .126-.029.164-.155.164h-2.621c-.592 0-.845.273-.845.827v1.361h3.155c.111 0 .145.04.145.165v.325c0 .111-.028.166-.145.166H51.08v1.787c0 .496.222.817.845.817h2.688c.127 0 .156.05.156.175v.34c0 .113-.029.17-.156.17zm3.582 0h-.514c-.111 0-.136-.02-.136-.127v-6.017h-1.942c-.11 0-.11-.019-.11-.125v-.4c0-.11.01-.135.11-.135h4.719c.11 0 .125.03.125.136v.399c0 .11-.019.125-.125.125h-2.01v6.021c0 .104-.029.123-.117.123zm7.125-.123l-.513-1.5h-2.885c-.078.184-.437 1.321-.515 1.496a.167.167 0 01-.175.127h-.555a.105.105 0 01-.111-.156l2.242-6.328c.11-.272.165-.333.427-.34h.253c.3 0 .358.078.444.34l2.213 6.328a.103.103 0 010 .108.102.102 0 01-.097.048h-.544c-.097 0-.142 0-.184-.123zm-1.932-5.87h-.048l-.466 1.438-.748 2.266h2.466l-.728-2.223-.476-1.48zm5.387-.821h3.039c.34 0 .515.185.515.545v6.147c0 .11-.03.126-.137.126h-.485c-.11 0-.135-.019-.135-.127v-6.02h-2.602l-.088 1.186c-.233 3-.252 4.539-1.998 5.083-.067.03-.145.02-.184-.11l-.087-.35c-.04-.146.02-.156.087-.186 1.292-.544 1.272-1.594 1.476-4.548l.087-1.206c.028-.355.193-.54.512-.54zm7.543 3.831c-.666 0-1.165.194-1.398.99l-.515 1.89a.138.138 0 01-.06.09.14.14 0 01-.104.02h-.525c-.078 0-.097-.048-.097-.087v-.058l.544-1.983c.145-.496.378-.855.922-1.06-.767-.281-1.136-.933-1.136-1.72 0-1.08.767-1.905 1.997-1.905h2.204c.35 0 .456.146.456.445v6.25c0 .11-.029.116-.135.116h-.495c-.111 0-.137-.01-.137-.116v-2.867l-1.521-.005zm-1.621-1.896c0 .739.436 1.243 1.397 1.243h1.748v-2.486h-1.806c-.97 0-1.34.62-1.34 1.243zm10.027 4.879h-.583a.222.222 0 01-.222-.117l-1.68-2.819-1.674 2.82a.238.238 0 01-.222.116h-.563c-.087 0-.11-.05-.069-.117l2.109-3.411-1.942-3.179c-.029-.039-.01-.111.068-.111h.563c.146 0 .175.01.222.117l1.534 2.546 1.518-2.542a.255.255 0 01.233-.116h.525c.086 0 .11.038.058.126l-1.926 3.139 2.116 3.431a.074.074 0 01.005.08.073.073 0 01-.07.037zm1.581.116a.574.574 0 01-.41-.995.592.592 0 011.003.403.578.578 0 01-.593.592zm-52.27 9.387v-5.91c0-.302.111-.458.456-.458l1.71-.009c2.009 0 3.048 1.303 3.048 3.373 0 2.05-.953 3.45-2.952 3.45H34.49c-.32 0-.456-.126-.456-.447zm2.127-5.686h-1.37v5.445h1.418c1.68 0 2.262-1.167 2.262-2.741 0-1.48-.563-2.704-2.31-2.704zm8.871 6.134h-2.698c-1.213 0-1.583-.72-1.583-1.605v-3.595c0-.895.444-1.615 1.583-1.615h2.63c.126 0 .156.059.156.176v.343c0 .127-.03.166-.155.166h-2.621c-.593 0-.845.272-.845.825v1.361h3.155c.117 0 .145.04.145.166v.32c0 .11-.028.165-.145.165h-3.151v1.79c0 .495.221.816.844.816h2.689c.126 0 .155.048.155.174v.34c-.003.114-.026.173-.159.173zm1.908-6.815h2.243c1.203 0 2.028.817 2.028 1.983 0 .73-.398 2.032-2.116 2.032h-1.864V28.4c0 .111-.03.117-.136.117h-.476c-.087 0-.126-.01-.126-.117v-6.25c.003-.301.102-.448.447-.448zm2.067 3.354c.894 0 1.427-.476 1.427-1.334 0-.583-.32-1.333-1.437-1.333h-1.762v2.666h1.772zm3.955-3.354h2.243c1.203 0 2.029.817 2.029 1.983 0 .73-.399 2.032-2.117 2.032h-1.864V28.4c0 .111-.029.117-.135.117h-.476c-.087 0-.126-.01-.126-.117v-6.25c0-.301.097-.448.446-.448zm2.068 3.354c.893 0 1.427-.476 1.427-1.334 0-.583-.32-1.333-1.436-1.333h-1.768v2.666h1.777zm7.28 3.334l-.515-1.497H58.91c-.077.185-.437 1.322-.515 1.497a.168.168 0 01-.174.127h-.555a.112.112 0 01-.1-.046.11.11 0 01-.01-.11l2.242-6.328c.111-.272.164-.333.427-.34h.252c.3 0 .36.078.444.34l2.22 6.328c.03.068.01.156-.097.156H62.5c-.104 0-.152 0-.19-.127zm-1.932-5.871h-.048l-.466 1.439-.747 2.263h2.47L60.86 24l-.48-1.48z" fill="#fff"/></svg>