<svg width="27" height="17" viewBox="0 0 27 17" fill="none" xmlns="http://www.w3.org/2000/svg"><path d="M5.385.34c2.423 0 4.093 1.67 4.093 4.061 0 2.423-1.703 4.093-4.159 4.093H2.667v4.225H.734V.34h4.65zM2.667 6.89H4.86c1.67 0 2.62-.917 2.62-2.456 0-1.572-.95-2.456-2.62-2.456H2.634V6.89h.033zm7.303 3.307c0-1.572 1.211-2.554 3.373-2.685l2.489-.13v-.689c0-1.015-.688-1.604-1.801-1.604-1.081 0-1.736.524-1.9 1.31h-1.768c.098-1.638 1.506-2.85 3.733-2.85 2.194 0 3.602 1.147 3.602 2.98v6.223H15.93v-1.474h-.033c-.524 1.015-1.67 1.637-2.849 1.637-1.834 0-3.078-1.113-3.078-2.718zm5.862-.818v-.72l-2.227.13c-1.114.066-1.736.557-1.736 1.343 0 .786.655 1.31 1.638 1.31 1.31 0 2.325-.885 2.325-2.063zm3.504 6.713v-1.507c.131.033.459.033.59.033.851 0 1.31-.36 1.604-1.277 0-.033.164-.557.164-.557l-3.275-9.038h1.998l2.292 7.368h.033l2.292-7.368H27l-3.373 9.53c-.786 2.194-1.67 2.881-3.537 2.881-.13-.032-.59-.032-.753-.065z" fill="#fff"/></svg>