<svg width="31" height="33" viewBox="0 0 31 33" fill="none" xmlns="http://www.w3.org/2000/svg"><path d="M15.64 22.435c.465.559.837 1.118 1.303 1.49A7.283 7.283 0 0020.2 25.6c.838.186 1.583.279 2.42.372.745.186 1.49.28 2.142.559 1.768.558 3.165 1.582 4.468 2.885a7.44 7.44 0 011.676 2.514c0 .093.093.186.093.28 0 .092 0 .092-.093.185 0 0-.093 0-.093-.093-.373-.744-.931-1.303-1.49-1.862-.93-.93-1.955-1.675-3.165-2.14-.558-.28-1.117-.466-1.769-.652-.558-.187-1.21-.28-1.768-.373-.745-.093-1.49-.093-2.235-.093-.651 0-1.396.093-2.048.28-.744.186-1.582.372-2.327.465-.652 0-1.396.093-2.048.093l-2.514-.28a7.392 7.392 0 01-2.048-.558 11.095 11.095 0 01-1.861-.745c-.745-.372-1.49-.837-2.235-1.303-1.303-.838-2.327-1.955-3.165-3.258a12.97 12.97 0 01-1.49-3.258c-.186-.838-.465-1.583-.465-2.42C0 15.452 0 14.615 0 13.87c0-.745.186-1.396.28-2.141.185-.745.465-1.49.65-2.235.28-.837.746-1.675 1.211-2.42.931-1.396 2.048-2.7 3.351-3.724C6.61 2.514 7.82 1.77 9.03 1.211c.931-.373 1.955-.746 2.979-.932A17.141 17.141 0 0115.081 0c.838 0 1.769.093 2.607.186.838.186 1.675.373 2.42.652.745.28 1.583.651 2.234 1.117 1.21.652 2.328 1.583 3.259 2.7.837 1.024 1.582 2.048 2.14 3.258.466 1.024.745 2.048.932 3.072.186 1.024.279 2.048.186 3.072-.093 1.024-.186 1.955-.466 2.886-.279 1.024-.651 2.048-1.21 3.072-.372.745-.838 1.49-1.303 2.141-.093.093-.093.186-.186.186-.745-2.42-2.141-3.816-4.655-4.282 1.117-.186 2.141.093 3.165.745.093-.28.186-.466.186-.652.187-.93.28-1.769.28-2.7 0-1.117-.187-2.327-.559-3.444-.372-1.21-.93-2.327-1.582-3.351-.838-1.304-1.862-2.328-2.98-3.259-.744-.558-1.489-1.024-2.327-1.396a18.107 18.107 0 00-2.048-.745c-1.024-.279-2.048-.372-3.072-.372s-1.955.28-2.886.652c-1.024.372-2.048 1.117-2.793 2.14a8.116 8.116 0 00-1.675 2.887c-.186.651-.466 1.303-.559 2.048-.186 1.117-.186 2.234-.093 3.258.093.93.28 1.769.652 2.606.558 1.49 1.303 2.886 2.327 4.097 1.21 1.396 2.793 2.327 4.468 3.072.838.372 1.77.651 2.7.744.466.093.931.093 1.397.187.186 0 .186 0 .186-.187-.186-.558-.28-1.117-.186-1.675v-.28z" fill="#F8981D"/><path d="M22.808 23.739c0 .558-.466.93-1.024.651-.373-.186-.652-.651-.559-1.024 0-.279.186-.465.372-.558.28-.093.559-.093.838.093.28.186.373.465.373.838zm2.327-.931v.186c0 .093-.093.186-.093.186-.093 0-.186 0-.186-.093-.28-.372-.465-.745-.465-1.117 0-.093 0-.186.093-.28.093 0 .279 0 .279.093.186.187.28.373.372.652v.373z" fill="#F8981D"/></svg>