<svg width="31" height="30" viewBox="0 0 31 30" fill="none" xmlns="http://www.w3.org/2000/svg"><path d="M22.535.913L9.609 8.669 3.432 4.905c.343-.457.8-.913 1.258-1.369l4.919 2.966L20.476 0c.8.228 1.487.57 2.059.913z" fill="#519C41"/><path d="M25.853 3.193l-16.244 9.81-8.122-5.02c.23-.57.572-1.026.915-1.596l7.207 4.448 14.757-8.897c.572.457 1.03.799 1.487 1.255z" fill="#519C41"/><path d="M28.14 5.817L9.608 16.881.343 11.178c.114-.57.229-1.027.457-1.483l8.808 5.361L27.225 4.448c.343.456.686.913.915 1.369z" fill="#519C41"/><path d="M31 14.6c0 8.555-6.978 15.398-15.443 15.398C6.977 30.112 0 23.155 0 14.6v-1.14l9.494 5.816L29.17 7.528C30.314 9.695 31 12.091 31 14.6z" fill="#519C41"/></svg>