<svg width="31" height="31" viewBox="0 0 31 31" fill="none" xmlns="http://www.w3.org/2000/svg"><g clip-path="url(#clip0)"><path fill-rule="evenodd" clip-rule="evenodd" d="M15.5 0C6.939 0 0 6.94 0 15.5 0 24.06 6.939 31 15.5 31 24.06 31 31 24.06 31 15.5 31 6.94 24.06 0 15.5 0zm13.74 11.563l-1.518.433c-9.244 2.787-16.285 6.223-21.387 14.597-.204.332-.54.154-.484-.244.076-.533.15-1.053.229-1.561 4.705-6.99 11.748-11.167 19.669-13.803.555-.004 1.118-.006 1.692-.008l1.726-.005c.41-.002.524.462.073.591zm-1.499-2.725l-1.52.433C16.98 12.06 9.66 16.048 4.558 24.42c-.204.335-.551.27-.483-.126.662-3.833 1.38-7.752 3.147-11.26-1.025-1.436-2.245-3.1-3.29-5.439-.118-.265-.21-.45-.27-.616-.15-.41.135-.607.483-.423.347.182 1.625.662 2.584.878a33.82 33.82 0 006.401.818c3.77.123 7.885.017 12.812 0l1.724-.006c.41-.002.526.464.075.591z" fill="url(#paint0_linear)"/></g><defs><linearGradient id="paint0_linear" x1="15.5" y1="0" x2="15.5" y2="31" gradientUnits="userSpaceOnUse"><stop stop-color="#8EC03B"/><stop offset="1" stop-color="#039752"/></linearGradient><clipPath id="clip0"><path fill="#fff" d="M0 0h31v31H0z"/></clipPath></defs></svg>