<svg width="16" height="15" viewBox="0 0 16 15" fill="none" xmlns="http://www.w3.org/2000/svg"><path d="M7.445.339A.621.621 0 018.001 0c.235 0 .45.132.555.339l1.992 3.964c.09.18.265.304.467.332l4.454.636a.616.616 0 01.5.414.6.6 0 01-.156.623l-3.224 3.086a.602.602 0 00-.178.538l.76 4.357a.603.603 0 01-.246.595.631.631 0 01-.652.047l-3.985-2.058a.63.63 0 00-.577 0L3.727 14.93a.63.63 0 01-.653-.046.603.603 0 01-.246-.595l.76-4.357a.601.601 0 00-.178-.538L.187 6.308a.6.6 0 01-.157-.623.616.616 0 01.5-.414l4.456-.636a.619.619 0 00.466-.333L7.445.34z" fill="#E8E9EA"/></svg>