<svg width="16" height="16" viewBox="0 0 16 16" fill="none" xmlns="http://www.w3.org/2000/svg"><path fill-rule="evenodd" clip-rule="evenodd" d="M8 0a8 8 0 100 16A8 8 0 008 0zm.753 11.02c-.09.094-.263.113-.263.113h-.576s-1.27.075-2.39-1.069c-1.22-1.247-2.298-3.722-2.298-3.722s-.062-.163.005-.24c.076-.09.283-.095.283-.095l1.376-.009s.13.021.223.088c.077.056.12.159.12.159s.222.552.517 1.052c.575.975.843 1.189 1.038 1.084.284-.152.199-1.379.199-1.379s.005-.445-.143-.643c-.115-.154-.332-.199-.428-.211-.077-.01.05-.187.215-.266.248-.119.685-.126 1.202-.12.403.003.519.028.676.065.365.087.354.364.33.963-.008.179-.017.386-.017.626l-.003.17c-.008.307-.018.658.188.789.105.067.363.01 1.008-1.065.306-.51.535-1.109.535-1.109s.05-.107.128-.153c.08-.046.187-.032.187-.032l1.449-.009s.435-.051.505.142c.074.202-.162.675-.754 1.45-.562.734-.835 1.005-.81 1.244.019.175.196.333.537.643.711.648.902.99.948 1.071a.582.582 0 00.008.016c.32.519-.353.56-.353.56l-1.287.017s-.276.054-.64-.191c-.19-.128-.377-.338-.554-.538-.271-.304-.521-.586-.735-.52-.359.112-.348.87-.348.87s.003.163-.078.249z" fill="#fff"/></svg>