<svg width="24" height="24" viewBox="0 0 24 24" fill="none" xmlns="http://www.w3.org/2000/svg"><path fill-rule="evenodd" clip-rule="evenodd" d="M12 0C5.373 0 0 5.373 0 12s5.373 12 12 12 12-5.373 12-12S18.627 0 12 0zm1.129 16.53c-.134.14-.394.17-.394.17h-.864s-1.906.111-3.585-1.604c-1.83-1.87-3.447-5.584-3.447-5.584s-.093-.243.008-.36c.114-.133.424-.141.424-.141l2.065-.013a.9.9 0 00.333.132c.116.083.18.237.18.237s.333.829.775 1.578c.863 1.463 1.265 1.783 1.557 1.627.427-.229.3-2.069.3-2.069s.007-.667-.216-.965c-.172-.23-.497-.297-.64-.316-.117-.015.074-.28.321-.4.372-.177 1.028-.188 1.803-.18.604.006.778.043 1.014.099.548.13.531.546.494 1.443-.01.269-.024.58-.024.94 0 .081-.002.167-.004.256-.013.46-.028.986.28 1.182.16.1.546.015 1.514-1.597.458-.765.802-1.663.802-1.663s.075-.16.192-.23c.12-.07.28-.048.28-.048l2.173-.013s.654-.077.759.213c.11.303-.244 1.012-1.132 2.174-.842 1.102-1.252 1.507-1.214 1.866.027.263.294.5.805.965 1.067.973 1.353 1.484 1.422 1.607l.013.023c.478.779-.531.84-.531.84l-1.93.026s-.415.08-.96-.287c-.286-.192-.565-.507-.832-.806-.406-.457-.781-.88-1.101-.78-.538.168-.522 1.305-.522 1.305s.004.244-.118.373z" fill="#394049"/></svg>