<svg width="24" height="24" viewBox="0 0 24 24" fill="none" xmlns="http://www.w3.org/2000/svg"><path fill-rule="evenodd" clip-rule="evenodd" d="M.101 11.893C.106 1.407 12.831-3.984 20.52 3.45l-.015.04A11.794 11.794 0 0124 11.898c-.004 9.05-9.76 14.72-17.665 10.45L0 24l1.696-6.162a11.836 11.836 0 01-1.595-5.945zm17.397 2.49l.009-.075.093.042c.248.11.41.183.477.303.075.135.075.72-.18 1.425-.249.705-1.442 1.335-2.016 1.426-.515.074-1.166.106-1.88-.12-2.644-.909-4.09-1.563-6.804-5.115-1.381-1.946-1.788-3.776-.174-5.55.371-.386.792-.394 1.368-.344l.056-.001c.177-.007.4-.015.616.511.11.257.286.684.456 1.095.217.527.424 1.027.466 1.111.074.15.125.314.025.524-.235.445-.48.716-.663.917-.25.277-.384.425-.215.717.176.3.772 1.275 1.66 2.07a7.643 7.643 0 002.206 1.396c.082.036.148.065.197.09.297.134.471.12.646-.076.173-.198.747-.867.944-1.162.27-.404.49-.293 2.385.653l.328.163z" fill="#394049"/></svg>