<svg width="30" height="31" viewBox="0 0 30 31" fill="none" xmlns="http://www.w3.org/2000/svg"><path d="M24.622 27.019c-2.615 2.07-5.883 3.377-9.479 3.377C6.864 30.396 0 23.641 0 15.252 0 6.864 6.755.11 15.143 0c2.724 0 5.23.654 7.518 1.961l-1.525 1.307-1.852-2.179-3.705 3.269-2.07-2.397-6.536 5.665 4.249 4.903-1.635 1.416 4.14 4.685-1.525 1.307 5.665 6.537 3.704-3.268 3.05 3.813z" fill="#036CB5"/><path d="M16.506 8.573l-3.224-3.694L9.671 8.03l3.224 3.694 3.611-3.152zm2.57 6.063l-3.152-3.611-3.612 3.152 3.153 3.612 3.611-3.153zm2.491 6.154l-3.152-3.611-3.53 3.08 3.153 3.612 3.53-3.08zm4.606-3.133l-2.364-2.708-2.709 2.364 2.364 2.709 2.709-2.365zm2.35 5.501l-2.365-2.708-2.709 2.364 2.365 2.709 2.709-2.365zm-4.615-11.116l-2.364-2.709-2.709 2.364 2.364 2.709 2.71-2.364zm-2.56-5.345L18.983 3.99l-2.708 2.364 2.364 2.708 2.709-2.364zm4.035-1.418L23.88 3.555 22.155 5.06l1.505 1.723 1.723-1.504zm2.35 5.234L26.228 8.79l-1.723 1.504 1.504 1.724 1.724-1.505zM30 15.82l-1.505-1.724-1.724 1.505 1.505 1.723L30 15.82z" fill="#036CB5"/></svg>