<svg width="16" height="16" viewBox="0 0 16 16" fill="none" xmlns="http://www.w3.org/2000/svg"><path fill-rule="evenodd" clip-rule="evenodd" d="M.067 7.929C.071.939 8.554-2.656 13.68 2.299l-.01.027A7.863 7.863 0 0116 7.933c-.003 6.033-6.507 9.813-11.777 6.966L0 16l1.13-4.108A7.89 7.89 0 01.068 7.93zm11.598 1.66l.006-.05.062.027c.165.074.274.122.318.203.05.09.05.48-.12.95-.166.47-.961.89-1.344.95-.343.05-.777.071-1.253-.08-1.763-.606-2.727-1.042-4.536-3.41-.92-1.297-1.192-2.517-.116-3.7.247-.257.528-.262.912-.229h.037c.119-.005.267-.01.411.34.073.171.19.456.304.73.145.351.283.685.31.74.05.1.084.21.017.35a2.79 2.79 0 01-.442.612c-.167.184-.256.282-.143.478.117.2.515.85 1.107 1.38.636.569 1.19.809 1.47.93.055.024.1.043.132.06.198.09.314.08.43-.05.116-.133.498-.579.63-.775.18-.27.326-.196 1.59.435l.218.109z" fill="#fff"/></svg>