<svg width="32" height="32" viewBox="0 0 32 32" fill="none" xmlns="http://www.w3.org/2000/svg"><path fill-rule="evenodd" clip-rule="evenodd" d="M16 32c8.837 0 16-7.163 16-16S24.837 0 16 0 0 7.163 0 16s7.163 16 16 16zm.65-13.367l-3.511 7.759h-2.777l4.41-7.963s-3.715-1.714-3.715-5.961c0-4.246 2.96-6.86 5.446-6.86h3.904v20.784h-2.205v-7.759H16.65zm-3.164-6.553c0 1.883.472 3.017 1.014 3.7.523.656 1.334 1.016 2.173 1.016h1.467V7.365h-1.886a.425.425 0 00-.07.005c-.327.053-2.699.586-2.699 4.71z" fill="#EB483F"/></svg>